<?xml version="1.0" standalone="no"?><!DOCTYPE svg PUBLIC "-//W3C//DTD SVG 1.1//EN" "http://www.w3.org/Graphics/SVG/1.1/DTD/svg11.dtd"><svg t="1714215596911" class="icon" viewBox="0 0 1158 1024" version="1.1" xmlns="http://www.w3.org/2000/svg" p-id="6254" xmlns:xlink="http://www.w3.org/1999/xlink" width="226.171875" height="200"><path d="M703.081377 506.855782c0 71.973521-55.60932 130.261936-124.034851 130.261935-68.353123 0-124.179666-58.433231-124.179666-130.334343s55.681728-130.189528 124.03485-130.189528C647.616873 376.44903 703.081377 434.882261 703.081377 506.855782z" fill="#333333" p-id="6255"></path><path d="M579.046526 72.407969Q165.452209 72.407969 0 506.855782q165.452209 434.447813 579.046526 434.447812 413.666726 0 579.118935-434.447812-165.597025-434.447813-579.118935-434.447813z m0 724.079688C441.978241 796.487657 289.631875 650.802823 289.631875 506.855782s152.346366-289.631875 289.414651-289.631876C716.114811 217.223906 868.895625 362.90874 868.895625 506.855782c-0.144816 144.091858-152.92563 289.631875-289.849099 289.631875z" fill="#333333" p-id="6256"></path><path d="M1096.401463 102.384868m-25.600082 25.600083l-870.402818 870.402817q-25.600083 25.600083-51.200166 0l0 0q-25.600083-25.600083 0-51.200165l870.402818-870.402818q25.600083-25.600083 51.200166 0l0 0q25.600083 25.600083 0 51.200166Z" fill="#3D3D3D" p-id="6257"></path><path d="M1061.687751 70.128763a62.270853 62.270853 0 0 0-9.16483-11.622437c-32.358505-32.358505-84.736274-32.307305-117.043579 0l-804.559404 804.559404c-32.307305 32.307305-32.358505 84.685074 0 117.043579a62.053629 62.053629 0 0 0 11.622438 9.16483q-2.560008-5.120017-3.532812-10.803235-0.870403-5.683218 0-11.264037 0.921603-5.734419 3.481611-10.854435 2.662409-5.120017 6.707222-9.164829l870.402818-870.402818q4.096013-4.096013 9.164829-6.707222 5.120017-2.560008 10.854436-3.481611 5.580818-0.870403 11.264036 0 5.683218 0.972803 10.752035 3.584012z" fill="#FFFFFF" p-id="6258"></path></svg>