<?xml version="1.0" standalone="no"?><!DOCTYPE svg PUBLIC "-//W3C//DTD SVG 1.1//EN" "http://www.w3.org/Graphics/SVG/1.1/DTD/svg11.dtd"><svg t="1714215512762" class="icon" viewBox="0 0 1024 1024" version="1.1" xmlns="http://www.w3.org/2000/svg" p-id="3421" xmlns:xlink="http://www.w3.org/1999/xlink" width="200" height="200"><path d="M512 819.2c-384 0-512-320-512-320s128-320 512-320 512 320 512 320-134.4 320-512 320z m0-505.6c-102.4 0-192 83.2-192 192 0 102.4 83.2 192 192 192 102.4 0 192-83.2 192-192-6.4-108.8-89.6-192-192-192z m0 313.6c-70.4 0-128-57.6-128-128h128L416 416c25.6-25.6 57.6-38.4 96-38.4 70.4 0 128 57.6 128 128-6.4 70.4-57.6 121.6-128 121.6z" fill="#040000" p-id="3422"></path></svg>